<svg xmlns="http://www.w3.org/2000/svg" viewBox="0 0 427 273" width="427" height="273">
<defs></defs>
<g transform="matrix(1,0,0,1,244,189)">
<g>
	<g>
		<path d="M-243,79 C-244,78 -163,-188 -163,-189 C-163,-190 101,-148 101,-148 C101,-148 -125,-108 -111,-8 C-96,91 -203,-107 -158,22 C-112,152 -244,-77 -196,31 C-149,141 -234,10 -220,55 C-205,99 -243,79 -243,79 Z" fill="#ffffff"/>
	</g>
	<g>
		<path d="M-71,-21 C-71,-30 35,-170 183,-36 C183,-36 183,-36 183,-36 C183,-36 65,88 -71,-21 Z" fill="#ffffff"/>
	</g>
	<g>
		<path d="M54,-73 C89,-75 119,-59 119,-38 C120,-17 92,0 57,2 C22,3 -7,-12 -7,-33 C-8,-54 19,-72 54,-73 Z" fill="#ff0000"/>
	</g>
	<g>
		<path d="M58,-52 C67,-52 75,-45 75,-36 C75,-27 67,-19 58,-19 C49,-19 42,-27 42,-36 C42,-45 49,-52 58,-52 Z" fill="#000000"/>
	</g>
	<g>
		<path d="M153,-8 C153,-7 182,46 166,64 C149,82 153,-8 153,-8 Z" fill="#ffffff"/>
	</g>
</g>
</g>
</svg>