<svg xmlns="http://www.w3.org/2000/svg" viewBox="0 0 427 273" width="427" height="273"><defs></defs><g transform="matrix(1,0,0,1,244.009183635,189.303694243)">
<g>
	<polyline points="18446744073709551615,18446744073709551615 -18446744073709551615,18446744073709551615 -18446744073709551615,-18446744073709551615 18446744073709551615,-18446744073709551615" fill="#000000"/>
</g>
<g>
	<g>
		<path d="M-243.9999999999999,79.0656396524858 C-244.9999999999999,78.07905144736931 -163.9999999999999,-188.29976393408268 -163.9999999999999,-189.28635213919918 C-163.9999999999999,-190.27294034431566 101.00000000000011,-148.83623572942312 101.00000000000011,-148.83623572942312 C101.00000000000011,-148.83623572942312 -125.94970703124996,-108.84829350128219 -111.47485351562493,-8.47850359114101 C-96.9999999999999,91.89128631900016 -203.07968301773064,-107.50989522616744 -158.03984150886527,22.28163580246927 C-112.99999999999989,152.073166831106 -244.00918363506332,-77.80188496103594 -196.9999999999999,31.70940580689434 C-149.99081636493645,141.22069657482461 -234.9999999999999,10.991053499448071 -220.4999999999999,55.38752272969007 C-205.9999999999999,99.78399195993207 -243.9999999999999,79.0656396524858 -243.9999999999999,79.0656396524858 Z" fill="#ffffff"/>
	</g>
	<g>
		<path d="M-71.5045918175141,-21.999999999999886 C-71.5046418175141,-30.999999999999886 35.4954081824859,-170.9999999999999 183.4954081824859,-36.999999999999886 C183.4954081824859,-36.999999999999886 183.4954081824859,-36.999999999999886 183.4954081824859,-36.999999999999886 C183.4954081824859,-36.999999999999886 65.4954081824859,88.00000000000011 -71.5045918175141,-21.999999999999886 Z" fill="#ffffff"/>
	</g>
	<g>
		<path d="M54.4075555178072,-73.69514550773297 C89.69093787035729,-75.170771494631 119.06335768807375,-59.35212113066556 119.93951061779447,-38.402612858838935 C120.81566354751517,-17.453104587012312 92.86664319969712,0.7628501473083773 57.58326084714702,2.238476134206401 C22.299878494596925,3.7141021211044247 -7.072541323119545,-12.104548242861021 -7.948694252840248,-33.054056514687645 C-8.824847182560958,-54.00356478651427 19.12417316525709,-72.21951952083495 54.4075555178072,-73.69514550773297 Z" fill="#ff0000"/>
	</g>
	<g>
		<path d="M58.765432098765416,-52.70476032021766 C67.86647485324396,-52.70476032021766 75.25925925925924,-45.31197591420239 75.25925925925924,-36.21093315972385 C75.25925925925924,-27.10989040524531 67.86647485324396,-19.71710599923004 58.765432098765416,-19.71710599923004 C49.66438934428687,-19.71710599923004 42.271604938271594,-27.10989040524531 42.271604938271594,-36.21093315972385 C42.271604938271594,-45.31197591420239 49.66438934428687,-52.70476032021766 58.765432098765416,-52.70476032021766 Z" fill="#000000"/>
	</g>
	<g>
		<path d="M153.4603260882942,-8.129711557148909 C153.3217737132803,-7.707415329868155 182.81121704231214,46.40451613820592 166.17078506415993,64.3326228769223 C149.53035308600775,82.26072961563868 153.4603260882942,-8.129711557148909 153.4603260882942,-8.129711557148909 Z" fill="#fefefe"/>
	</g>
</g></g></svg>